<?xml version="1.0" encoding="UTF-8"?>
<svg width="87px" height="25px" viewBox="0 0 87 25" version="1.1" xmlns="http://www.w3.org/2000/svg" xmlns:xlink="http://www.w3.org/1999/xlink">
    <!-- Generator: Sketch 58 (84663) - https://sketch.com -->
    <title>Artboard</title>
    <desc>Created with Sketch.</desc>
    <g id="Artboard" stroke="none" stroke-width="1" fill="none" fill-rule="evenodd">
        <path d="M14.8,17.5666667 C14.8379028,17.5382395 14.8715729,17.5045695 14.9,17.4666667 L21.4,8.8 C21.5656854,8.5790861 21.5209139,8.26568542 21.3,8.1 C21.2134519,8.03508894 21.1081851,8 21,8 L17.5,8.00069609 L14.9,11.4666667 L14.8535534,11.5202201 L14.8,11.5666667 C14.6036321,11.7139426 14.3341882,11.6949316 14.1603699,11.5337338 L14.1,11.4666667 L11.5,8.00069609 L8,8 C7.72385763,8 7.5,8.22385763 7.5,8.5 C7.5,8.60818511 7.53508894,8.71345191 7.6,8.8 L14.1,17.4666667 C14.2656854,17.6875806 14.5790861,17.7323521 14.8,17.5666667 Z" id="Path-Copy-24" fill="#585858"></path>
        <path d="M43.8,17.5666667 C43.8379028,17.5382395 43.8715729,17.5045695 43.9,17.4666667 L50.4,8.8 C50.5656854,8.5790861 50.5209139,8.26568542 50.3,8.1 C50.2134519,8.03508894 50.1081851,8 50,8 L46.5,8.00069609 L43.9,11.4666667 L43.8535534,11.5202201 L43.8,11.5666667 C43.6036321,11.7139426 43.3341882,11.6949316 43.1603699,11.5337338 L43.1,11.4666667 L40.5,8.00069609 L37,8 C36.7238576,8 36.5,8.22385763 36.5,8.5 C36.5,8.60818511 36.5350889,8.71345191 36.6,8.8 L43.1,17.4666667 C43.2656854,17.6875806 43.5790861,17.7323521 43.8,17.5666667 Z" id="Path-Copy-25" fill="#1E1E1E"></path>
        <path d="M72.8,17.5666667 C72.8379028,17.5382395 72.8715729,17.5045695 72.9,17.4666667 L79.4,8.8 C79.5656854,8.5790861 79.5209139,8.26568542 79.3,8.1 C79.2134519,8.03508894 79.1081851,8 79,8 L75.5,8.00069609 L72.9,11.4666667 L72.8535534,11.5202201 L72.8,11.5666667 C72.6036321,11.7139426 72.3341882,11.6949316 72.1603699,11.5337338 L72.1,11.4666667 L69.5,8.00069609 L66,8 C65.7238576,8 65.5,8.22385763 65.5,8.5 C65.5,8.60818511 65.5350889,8.71345191 65.6,8.8 L72.1,17.4666667 C72.2656854,17.6875806 72.5790861,17.7323521 72.8,17.5666667 Z" id="Path-Copy-26" fill="#328BF2"></path>
    </g>
</svg>