<?xml version="1.0" encoding="UTF-8"?>
<svg width="87px" height="25px" viewBox="0 0 87 25" version="1.1" xmlns="http://www.w3.org/2000/svg" xmlns:xlink="http://www.w3.org/1999/xlink">
    <!-- Generator: Sketch 58 (84663) - https://sketch.com -->
    <title>Artboard</title>
    <desc>Created with Sketch.</desc>
    <g id="Artboard" stroke="none" stroke-width="1" fill="none" fill-rule="evenodd">
        <rect id="Rectangle-Copy-111" fill="#585858" x="7" y="6" width="7" height="6" rx="1"></rect>
        <rect id="Rectangle-Copy-108" fill="#585858" x="15" y="6" width="7" height="6" rx="1"></rect>
        <rect id="Rectangle-Copy-107" fill="#585858" x="7" y="13" width="7" height="6" rx="1"></rect>
        <rect id="Rectangle-Copy-104" fill="#585858" x="15" y="13" width="7" height="6" rx="1"></rect>
        <rect id="Rectangle-Copy-129" fill="#1E1E1E" x="36" y="6" width="7" height="6" rx="1"></rect>
        <rect id="Rectangle-Copy-128" fill="#1E1E1E" x="44" y="6" width="7" height="6" rx="1"></rect>
        <rect id="Rectangle-Copy-127" fill="#1E1E1E" x="36" y="13" width="7" height="6" rx="1"></rect>
        <rect id="Rectangle-Copy-126" fill="#1E1E1E" x="44" y="13" width="7" height="6" rx="1"></rect>
        <rect id="Rectangle-Copy-134" fill="#328BF2" x="65" y="6" width="7" height="6" rx="1"></rect>
        <rect id="Rectangle-Copy-133" fill="#328BF2" x="73" y="6" width="7" height="6" rx="1"></rect>
        <rect id="Rectangle-Copy-132" fill="#328BF2" x="65" y="13" width="7" height="6" rx="1"></rect>
        <rect id="Rectangle-Copy-131" fill="#328BF2" x="73" y="13" width="7" height="6" rx="1"></rect>
    </g>
</svg>