<?xml version="1.0" encoding="UTF-8"?>
<svg width="87px" height="25px" viewBox="0 0 87 25" version="1.1" xmlns="http://www.w3.org/2000/svg" xmlns:xlink="http://www.w3.org/1999/xlink">
    <!-- Generator: Sketch 58 (84663) - https://sketch.com -->
    <title>Artboard</title>
    <desc>Created with Sketch.</desc>
    <g id="Artboard" stroke="none" stroke-width="1" fill="none" fill-rule="evenodd">
        <path d="M14.8,7.43333333 C14.8379028,7.46176046 14.8715729,7.4954305 14.9,7.53333333 L21.4,16.2 C21.5656854,16.4209139 21.5209139,16.7343146 21.3,16.9 C21.2134519,16.9649111 21.1081851,17 21,17 L17.5,16.9993039 L14.9,13.5333333 C14.8857864,13.5143819 14.8702621,13.4964887 14.8535534,13.4797799 L14.8,13.4333333 C14.5790861,13.2676479 14.2656854,13.3124194 14.1,13.5333333 L14.1,13.5333333 L11.5,16.9993039 L8,17 C7.72385763,17 7.5,16.7761424 7.5,16.5 C7.5,16.3918149 7.53508894,16.2865481 7.6,16.2 L14.1,7.53333333 C14.2656854,7.31241943 14.5790861,7.26764791 14.8,7.43333333 Z" id="Combined-Shape-Copy" fill="#585858"></path>
        <path d="M43.8,7.43333333 C43.8379028,7.46176046 43.8715729,7.4954305 43.9,7.53333333 L50.4,16.2 C50.5656854,16.4209139 50.5209139,16.7343146 50.3,16.9 C50.2134519,16.9649111 50.1081851,17 50,17 L46.5,16.9993039 L43.9,13.5333333 C43.8857864,13.5143819 43.8702621,13.4964887 43.8535534,13.4797799 L43.8,13.4333333 C43.5790861,13.2676479 43.2656854,13.3124194 43.1,13.5333333 L43.1,13.5333333 L40.5,16.9993039 L37,17 C36.7238576,17 36.5,16.7761424 36.5,16.5 C36.5,16.3918149 36.5350889,16.2865481 36.6,16.2 L43.1,7.53333333 C43.2656854,7.31241943 43.5790861,7.26764791 43.8,7.43333333 Z" id="Combined-Shape-Copy-2" fill="#1E1E1E"></path>
        <path d="M72.8,7.43333333 C72.8379028,7.46176046 72.8715729,7.4954305 72.9,7.53333333 L79.4,16.2 C79.5656854,16.4209139 79.5209139,16.7343146 79.3,16.9 C79.2134519,16.9649111 79.1081851,17 79,17 L75.5,16.9993039 L72.9,13.5333333 C72.8857864,13.5143819 72.8702621,13.4964887 72.8535534,13.4797799 L72.8,13.4333333 C72.5790861,13.2676479 72.2656854,13.3124194 72.1,13.5333333 L72.1,13.5333333 L69.5,16.9993039 L66,17 C65.7238576,17 65.5,16.7761424 65.5,16.5 C65.5,16.3918149 65.5350889,16.2865481 65.6,16.2 L72.1,7.53333333 C72.2656854,7.31241943 72.5790861,7.26764791 72.8,7.43333333 Z" id="Combined-Shape-Copy-3" fill="#328BF2"></path>
    </g>
</svg>