<?xml version="1.0" encoding="UTF-8"?>
<svg width="60px" height="19px" viewBox="0 0 60 19" version="1.1" xmlns="http://www.w3.org/2000/svg" xmlns:xlink="http://www.w3.org/1999/xlink">
    <!-- Generator: Sketch 58 (84663) - https://sketch.com -->
    <title>Artboard Copy 3</title>
    <desc>Created with Sketch.</desc>
    <g id="Artboard-Copy-3" stroke="none" stroke-width="1" fill="none" fill-rule="evenodd">
        <polygon id="Path-2-Copy-4" fill="#D0DAE6" points="3.70927318 19 6.11528822 11.7690289 0 7.23097113 7.61904762 7.23097113 9.97493734 0 12.4310777 7.23097113 20 7.23097113 13.7844612 11.7690289 16.2907268 19 9.97493734 14.511811"></polygon>
        <polygon id="Path-2-Copy-5" fill="#B6BFCA" points="23.7092732 19 26.1152882 11.7690289 20 7.23097113 27.6190476 7.23097113 29.9749373 0 32.4310777 7.23097113 40 7.23097113 33.7844612 11.7690289 36.2907268 19 29.9749373 14.511811"></polygon>
        <polygon id="Path-2-Copy-6" fill="#FFC84E" points="43.7092732 19 46.1152882 11.7690289 40 7.23097113 47.6190476 7.23097113 49.9749373 0 52.4310777 7.23097113 60 7.23097113 53.7844612 11.7690289 56.2907268 19 49.9749373 14.511811"></polygon>
    </g>
</svg>