<?xml version="1.0" encoding="UTF-8"?>
<svg width="78px" height="23px" viewBox="0 0 78 23" version="1.1" xmlns="http://www.w3.org/2000/svg" xmlns:xlink="http://www.w3.org/1999/xlink">
    <!-- Generator: Sketch 58 (84663) - https://sketch.com -->
    <title>Artboard</title>
    <desc>Created with Sketch.</desc>
    <g id="Artboard" stroke="none" stroke-width="1" fill="none" fill-rule="evenodd">
        <polygon id="Path-2-Copy-4" fill="#D0DAE6" points="6.70927318 21 9.11528822 13.7690289 3 9.23097113 10.6190476 9.23097113 12.9749373 2 15.4310777 9.23097113 23 9.23097113 16.7844612 13.7690289 19.2907268 21 12.9749373 16.511811"></polygon>
        <polygon id="Path-2-Copy-5" fill="#B6BFCA" points="32.7092732 21 35.1152882 13.7690289 29 9.23097113 36.6190476 9.23097113 38.9749373 2 41.4310777 9.23097113 49 9.23097113 42.7844612 13.7690289 45.2907268 21 38.9749373 16.511811"></polygon>
        <polygon id="Path-2-Copy-6" fill="#FFC84E" points="58.7092732 21 61.1152882 13.7690289 55 9.23097113 62.6190476 9.23097113 64.9749373 2 67.4310777 9.23097113 75 9.23097113 68.7844612 13.7690289 71.2907268 21 64.9749373 16.511811"></polygon>
    </g>
</svg>