<?xml version="1.0" encoding="UTF-8"?>
<svg width="99px" height="32px" viewBox="0 0 99 32" version="1.1" xmlns="http://www.w3.org/2000/svg" xmlns:xlink="http://www.w3.org/1999/xlink">
    <!-- Generator: Sketch 58 (84663) - https://sketch.com -->
    <title>Artboard Copy 2</title>
    <desc>Created with Sketch.</desc>
    <g id="Artboard-Copy-2" stroke="none" stroke-width="1" fill="none" fill-rule="evenodd">
        <polygon id="Path-2" fill="#D0DAE6" points="8.63659148 28 11.6441103 18.8661417 4 13.1338583 13.5238095 13.1338583 16.4686717 4 19.5388471 13.1338583 29 13.1338583 21.2305764 18.8661417 24.3634085 28 16.4686717 22.3307087"></polygon>
        <polygon id="Path-2-Copy" fill="#B6BFCA" points="41.6365915 28 44.6441103 18.8661417 37 13.1338583 46.5238095 13.1338583 49.4686717 4 52.5388471 13.1338583 62 13.1338583 54.2305764 18.8661417 57.3634085 28 49.4686717 22.3307087"></polygon>
        <polygon id="Path-2-Copy-2" fill="#FFC84E" points="74.6365915 28 77.6441103 18.8661417 70 13.1338583 79.5238095 13.1338583 82.4686717 4 85.5388471 13.1338583 95 13.1338583 87.2305764 18.8661417 90.3634085 28 82.4686717 22.3307087"></polygon>
    </g>
</svg>