<?xml version="1.0" encoding="UTF-8"?>
<svg width="75px" height="24px" viewBox="0 0 75 24" version="1.1" xmlns="http://www.w3.org/2000/svg" xmlns:xlink="http://www.w3.org/1999/xlink">
    <!-- Generator: Sketch 58 (84663) - https://sketch.com -->
    <title>Artboard Copy 4</title>
    <desc>Created with Sketch.</desc>
    <g id="Artboard-Copy-4" stroke="none" stroke-width="1" fill="none" fill-rule="evenodd">
        <polygon id="Path-2" fill="#D0DAE6" points="4.63659148 24 7.64411028 14.8661417 0 9.13385827 9.52380952 9.13385827 12.4686717 0 15.5388471 9.13385827 25 9.13385827 17.2305764 14.8661417 20.3634085 24 12.4686717 18.3307087"></polygon>
        <polygon id="Path-2-Copy" fill="#B6BFCA" points="29.6365915 24 32.6441103 14.8661417 25 9.13385827 34.5238095 9.13385827 37.4686717 0 40.5388471 9.13385827 50 9.13385827 42.2305764 14.8661417 45.3634085 24 37.4686717 18.3307087"></polygon>
        <polygon id="Path-2-Copy-2" fill="#FFC84E" points="54.6365915 24 57.6441103 14.8661417 50 9.13385827 59.5238095 9.13385827 62.4686717 0 65.5388471 9.13385827 75 9.13385827 67.2305764 14.8661417 70.3634085 24 62.4686717 18.3307087"></polygon>
    </g>
</svg>